<svg
 xmlns="http://www.w3.org/2000/svg"
 xmlns:xlink="http://www.w3.org/1999/xlink"
 width="90px" height="88px">
<path fill-rule="evenodd"  fill="rgb(255, 255, 255)"
 d="M81.250,41.032 L81.250,42.225 L90.000,42.225 L90.000,44.734 L80.000,44.734 C79.309,44.734 78.750,44.173 78.750,43.480 L78.750,42.286 L73.109,42.286 L73.109,39.778 L78.750,39.778 L78.750,14.693 L68.997,14.693 C68.394,14.693 67.877,14.261 67.767,13.667 C66.765,8.167 61.774,5.002 53.701,4.686 C50.483,4.607 46.818,4.571 46.282,4.647 C44.303,4.933 42.556,6.266 42.196,6.607 L30.371,18.460 C32.184,19.798 36.031,22.100 38.886,20.092 L47.229,11.765 C47.292,11.704 47.327,11.662 47.361,11.623 C47.656,11.285 48.129,11.111 48.568,11.199 C49.008,11.289 49.384,11.587 49.524,12.015 C49.752,12.709 51.954,18.728 58.855,16.692 C58.989,16.653 59.128,16.610 59.269,16.563 C60.095,16.285 60.796,15.962 61.350,15.601 L62.710,17.706 C62.305,17.970 61.840,18.210 61.341,18.434 L73.867,32.599 C74.663,33.508 74.990,34.766 74.769,36.055 C74.563,37.264 73.904,38.411 72.915,39.283 C71.926,40.156 70.709,40.667 69.489,40.720 C69.437,40.722 69.385,40.723 69.332,40.724 C69.333,42.144 68.672,43.647 67.418,44.755 C66.389,45.663 65.149,46.141 63.962,46.185 C64.022,47.657 63.359,49.245 62.051,50.403 C59.930,52.271 56.915,52.315 55.327,50.504 L55.040,50.193 C54.719,51.049 54.169,51.847 53.438,52.492 C52.517,53.307 51.228,53.760 49.854,53.760 C49.720,53.760 49.587,53.756 49.453,53.747 C48.369,53.678 47.389,53.334 46.646,52.787 L45.575,54.304 C44.755,55.467 43.434,56.080 42.062,56.080 C41.122,56.080 40.158,55.792 39.316,55.195 C38.077,54.314 37.394,52.959 37.332,51.594 C36.971,51.664 36.607,51.722 36.238,51.722 C35.099,51.722 33.949,51.382 32.949,50.673 C31.470,49.621 30.664,47.985 30.574,46.295 C30.361,46.357 30.153,46.433 29.930,46.471 C29.606,46.527 29.280,46.555 28.956,46.555 C27.784,46.555 26.643,46.193 25.668,45.500 C24.424,44.617 23.597,43.300 23.341,41.791 C23.317,41.651 23.325,41.512 23.311,41.372 C22.857,41.500 22.391,41.587 21.910,41.587 C20.813,41.587 19.684,41.248 18.695,40.547 C16.760,39.172 15.975,36.824 16.562,34.788 L11.250,34.766 L11.250,36.015 C11.250,36.708 10.691,37.269 10.000,37.269 L-0.000,37.269 L-0.000,34.760 L8.750,34.760 L8.750,34.755 L8.750,4.719 L-0.000,4.719 L-0.000,2.210 L10.000,2.210 C10.691,2.210 11.250,2.772 11.250,3.464 L11.250,4.659 L19.795,4.659 C22.421,2.342 26.681,-0.009 31.213,-0.009 L44.718,-0.009 C47.196,-0.009 48.907,0.685 49.920,2.108 C51.578,2.127 53.226,2.165 53.780,2.179 C65.438,2.636 68.964,8.264 70.000,12.184 L78.750,12.184 L78.750,10.930 C78.750,10.237 79.309,9.676 80.000,9.676 L90.000,9.676 L90.000,12.184 L81.250,12.184 L81.250,13.439 L81.250,41.032 ZM40.761,53.147 C41.702,53.817 42.947,53.687 43.534,52.855 L48.296,46.108 C48.882,45.276 48.593,44.054 47.649,43.385 C47.179,43.050 46.625,42.904 46.081,42.975 C45.577,43.041 45.150,43.291 44.877,43.679 L44.144,44.717 L40.907,49.305 C40.906,49.307 40.905,49.307 40.904,49.309 L40.115,50.427 C39.529,51.258 39.819,52.477 40.761,53.147 ZM34.395,48.625 C35.835,49.651 37.840,49.305 38.863,47.860 L41.323,44.373 L44.447,39.945 C44.943,39.243 45.135,38.389 44.992,37.541 C44.847,36.693 44.382,35.953 43.683,35.457 C42.983,34.960 42.133,34.766 41.289,34.911 C40.444,35.056 39.706,35.523 39.211,36.224 L33.629,44.134 C32.606,45.585 32.949,47.599 34.395,48.625 ZM25.806,41.369 C25.950,42.216 26.414,42.956 27.112,43.452 C27.812,43.949 28.663,44.143 29.509,43.999 C30.355,43.853 31.094,43.387 31.588,42.685 C31.588,42.685 31.588,42.685 31.588,42.684 L32.556,41.312 L36.740,35.382 C37.235,34.680 37.429,33.827 37.284,32.979 C37.140,32.131 36.675,31.392 35.975,30.895 C35.414,30.496 34.767,30.304 34.126,30.304 C33.119,30.304 32.128,30.778 31.503,31.663 L29.359,34.701 C29.358,34.703 29.358,34.704 29.357,34.706 L28.641,35.720 L26.351,38.965 L26.351,38.966 C25.854,39.668 25.662,40.521 25.806,41.369 ZM20.140,38.499 C21.414,39.405 23.092,39.236 23.878,38.124 L27.094,33.569 L27.316,33.254 C28.101,32.142 27.700,30.498 26.423,29.590 C25.886,29.208 25.269,29.007 24.651,29.007 C24.537,29.007 24.424,29.013 24.310,29.028 C23.628,29.112 23.050,29.445 22.683,29.966 L19.248,34.836 C18.463,35.950 18.864,37.592 20.140,38.499 ZM21.130,6.830 L20.770,7.167 L11.250,7.167 L11.250,32.258 L17.984,32.286 L20.642,28.517 C21.421,27.412 22.616,26.709 24.006,26.537 C25.352,26.372 26.722,26.730 27.869,27.542 C28.736,28.160 29.369,28.977 29.760,29.870 C31.647,27.605 34.975,27.114 37.419,28.847 C38.665,29.730 39.492,31.048 39.749,32.557 C39.759,32.620 39.753,32.682 39.762,32.745 C40.116,32.608 40.485,32.504 40.867,32.438 C42.371,32.180 43.882,32.525 45.127,33.409 C46.371,34.292 47.199,35.609 47.456,37.118 C47.655,38.290 47.483,39.462 46.989,40.514 C47.732,40.619 48.456,40.885 49.093,41.337 C51.161,42.805 51.719,45.595 50.337,47.557 L48.094,50.734 C48.443,51.008 49.000,51.205 49.612,51.244 C50.450,51.294 51.276,51.061 51.785,50.609 C52.412,50.057 52.811,49.308 52.856,48.602 C52.877,48.286 52.835,47.833 52.516,47.470 L52.042,46.946 L53.886,45.252 L57.183,48.823 C57.872,49.609 59.335,49.460 60.399,48.520 C61.461,47.580 61.796,46.141 61.129,45.378 L49.368,31.750 L51.257,30.107 L62.577,43.208 C63.238,43.964 64.702,43.811 65.767,42.871 C66.830,41.932 67.164,40.495 66.495,39.733 L53.544,25.072 L55.414,23.408 L68.065,37.725 C68.467,38.184 69.056,38.232 69.381,38.213 C70.023,38.185 70.711,37.889 71.263,37.400 C71.818,36.912 72.197,36.267 72.306,35.630 C72.360,35.313 72.391,34.714 71.993,34.260 L58.764,19.299 C53.600,20.478 49.797,17.966 47.935,14.598 L40.577,21.941 C40.533,21.986 40.485,22.027 40.435,22.065 C34.939,26.101 27.949,19.757 27.655,19.486 C27.404,19.254 27.258,18.930 27.251,18.587 C27.244,18.246 27.377,17.916 27.617,17.675 L40.441,4.821 C40.466,4.796 42.133,3.256 44.525,2.499 L31.213,2.499 C26.017,2.499 21.902,6.107 21.130,6.830 ZM8.872,57.314 C9.816,57.315 10.875,57.586 11.863,58.137 L11.797,46.091 L14.297,46.078 L14.374,60.256 C14.375,60.596 14.240,60.921 13.998,61.159 C13.756,61.397 13.419,61.525 13.091,61.516 L12.633,61.504 C12.340,61.496 12.059,61.386 11.840,61.192 C10.812,60.284 9.821,59.823 8.892,59.823 C8.888,59.823 8.886,59.823 8.882,59.823 C7.512,59.828 6.401,61.142 6.354,62.813 L6.355,62.949 C6.433,64.575 7.570,65.886 8.943,65.886 C8.945,65.886 8.948,65.886 8.950,65.886 C9.879,65.882 10.864,65.417 11.875,64.501 C12.092,64.305 12.372,64.191 12.664,64.180 L13.088,64.163 C13.447,64.145 13.757,64.276 14.003,64.511 C14.247,64.747 14.386,65.072 14.387,65.413 L14.420,77.579 L24.292,77.606 C23.787,76.664 23.530,75.707 23.528,74.745 C23.523,73.464 24.042,72.235 24.987,71.287 C26.008,70.260 27.445,69.673 28.931,69.673 C28.935,69.673 28.940,69.673 28.946,69.673 L29.131,69.673 C32.192,69.799 34.559,72.032 34.568,74.759 C34.570,75.726 34.318,76.688 33.811,77.632 L43.740,77.659 L43.707,65.460 C43.706,65.112 43.849,64.780 44.102,64.543 C44.353,64.305 44.695,64.180 45.038,64.205 L45.348,64.225 C45.641,64.243 45.917,64.366 46.129,64.568 C46.813,65.221 47.872,66.009 49.031,66.047 C50.429,66.118 51.564,64.829 51.674,63.159 L51.679,63.018 C51.660,61.394 50.570,60.039 49.194,59.989 C48.268,59.967 47.267,60.386 46.217,61.263 C45.992,61.450 45.709,61.553 45.417,61.553 C45.416,61.553 45.415,61.553 45.414,61.553 L44.939,61.551 C44.255,61.550 43.700,60.997 43.693,60.311 L43.656,57.040 L46.156,57.012 L46.169,58.268 C47.203,57.710 48.242,57.451 49.282,57.482 C51.998,57.580 54.147,60.025 54.177,63.049 L54.170,63.285 C53.967,66.354 51.638,68.643 48.945,68.555 C48.020,68.523 47.107,68.254 46.213,67.751 L46.244,78.914 C46.245,79.248 46.113,79.568 45.878,79.804 C45.643,80.039 45.326,80.171 44.994,80.171 C44.993,80.171 44.992,80.171 44.990,80.171 L31.628,80.135 C31.291,80.133 30.969,79.996 30.735,79.753 C30.499,79.510 30.372,79.183 30.382,78.845 L30.392,78.506 C30.400,78.211 30.513,77.929 30.708,77.709 C31.612,76.689 32.070,75.699 32.068,74.767 C32.064,73.386 30.749,72.250 29.076,72.181 L28.939,72.181 C28.935,72.181 28.933,72.181 28.930,72.181 C28.103,72.181 27.311,72.501 26.755,73.059 C26.284,73.532 26.025,74.128 26.028,74.737 C26.032,75.905 26.781,76.989 27.408,77.694 C27.601,77.910 27.714,78.186 27.726,78.475 L27.740,78.811 C27.755,79.153 27.631,79.487 27.394,79.734 C27.158,79.981 26.832,80.120 26.492,80.120 C26.491,80.120 26.489,80.120 26.488,80.120 L13.170,80.083 C12.483,80.081 11.926,79.522 11.924,78.833 L11.893,67.575 C10.930,68.116 9.949,68.391 8.959,68.395 C8.954,68.395 8.948,68.395 8.943,68.395 C6.233,68.395 4.000,66.036 3.856,63.017 L3.854,62.786 C3.942,59.708 6.146,57.324 8.872,57.314 ZM59.242,77.855 C59.477,78.101 59.603,78.433 59.590,78.774 L59.574,79.181 C59.563,79.471 59.452,79.747 59.262,79.964 C58.640,80.666 57.903,81.749 57.909,82.912 C57.916,84.293 59.233,85.424 60.908,85.489 L61.031,85.487 C62.658,85.425 63.955,84.300 63.948,82.926 C63.942,81.756 63.190,80.674 62.560,79.972 C62.363,79.753 62.250,79.472 62.240,79.178 L62.220,78.627 C62.208,78.286 62.335,77.955 62.571,77.710 C62.806,77.466 63.131,77.328 63.469,77.328 C63.471,77.328 63.472,77.328 63.473,77.328 L75.936,77.362 L75.928,67.646 C74.925,68.228 73.893,68.533 72.876,68.537 C70.151,68.581 67.919,66.182 67.775,63.160 L67.771,62.939 C67.864,59.849 70.070,57.466 72.794,57.459 C73.801,57.479 74.867,57.751 75.885,58.341 L75.823,45.812 L78.323,45.800 L78.396,60.406 C78.397,60.746 78.262,61.072 78.019,61.310 C77.777,61.547 77.452,61.687 77.109,61.666 L76.548,61.649 C76.256,61.641 75.977,61.530 75.758,61.336 C75.051,60.711 73.967,59.967 72.809,59.967 C72.806,59.967 72.804,59.967 72.801,59.967 C71.433,59.971 70.321,61.286 70.271,62.959 L70.273,63.083 C70.352,64.718 71.488,66.029 72.862,66.029 C72.864,66.029 72.866,66.029 72.867,66.029 C74.030,66.024 75.099,65.274 75.791,64.646 C76.011,64.447 76.294,64.333 76.589,64.323 L77.136,64.305 C77.468,64.287 77.803,64.422 78.046,64.658 C78.289,64.894 78.426,65.218 78.426,65.558 L78.437,78.618 C78.437,78.951 78.306,79.271 78.070,79.506 C77.834,79.742 77.549,79.890 77.184,79.873 L65.553,79.842 C66.137,80.853 66.442,81.892 66.448,82.912 C66.462,85.649 64.108,87.881 61.086,87.995 L60.869,87.996 C57.797,87.880 55.424,85.653 55.409,82.926 C55.404,81.934 55.668,80.948 56.195,79.979 L49.427,79.978 L49.427,77.470 L58.341,77.471 C58.682,77.471 59.006,77.610 59.242,77.855 Z"/>
</svg>
