<svg
 xmlns="http://www.w3.org/2000/svg"
 xmlns:xlink="http://www.w3.org/1999/xlink"
 width="108px" height="85px">
<path fill-rule="evenodd"  fill="rgb(255, 255, 255)"
 d="M106.744,62.500 L104.233,62.500 L104.233,60.000 L105.488,60.000 L105.488,37.500 C105.488,32.266 101.451,28.750 95.442,28.750 L91.674,28.750 L91.674,26.250 L95.442,26.250 C102.836,26.250 108.000,30.876 108.000,37.500 L108.000,61.250 C108.000,61.941 107.438,62.500 106.744,62.500 ZM92.930,23.750 C89.174,23.750 86.651,20.736 86.651,16.250 C86.651,11.764 89.174,8.750 92.930,8.750 C96.686,8.750 99.209,11.764 99.209,16.250 C99.209,20.736 96.686,23.750 92.930,23.750 ZM92.930,11.250 C90.152,11.250 89.163,13.833 89.163,16.250 C89.163,18.667 90.152,21.250 92.930,21.250 C95.708,21.250 96.698,18.667 96.698,16.250 C96.698,13.833 95.708,11.250 92.930,11.250 ZM90.419,60.000 C90.419,60.690 89.856,61.250 89.163,61.250 L86.651,61.250 L86.651,58.750 L87.907,58.750 L87.907,35.872 C87.907,29.877 82.910,25.000 76.768,25.000 L72.837,25.000 L72.837,22.500 L76.768,22.500 C84.295,22.500 90.419,28.499 90.419,35.872 L90.419,60.000 ZM74.064,20.000 C69.557,20.000 66.529,16.484 66.529,11.250 C66.529,6.016 69.557,2.500 74.064,2.500 C78.571,2.500 81.599,6.016 81.599,11.250 C81.599,16.484 78.571,20.000 74.064,20.000 ZM74.064,5.000 C70.360,5.000 69.041,8.229 69.041,11.250 C69.041,14.271 70.360,17.500 74.064,17.500 C77.768,17.500 79.088,14.271 79.088,11.250 C79.088,8.229 77.768,5.000 74.064,5.000 ZM73.323,30.810 L75.293,45.349 C75.492,46.336 75.205,47.411 74.473,48.299 C73.498,49.480 71.803,50.243 70.153,50.243 L66.583,50.243 L66.583,85.000 L64.071,85.000 L64.071,50.243 L60.821,50.243 C59.917,50.243 58.575,49.968 57.441,49.626 C57.388,49.638 57.334,49.646 57.278,49.650 L50.055,50.238 L43.978,50.241 L43.978,85.000 L41.466,85.000 L41.466,50.242 L37.833,50.243 C36.193,50.243 34.576,49.554 33.613,48.445 C32.854,47.570 32.528,46.465 32.695,45.335 L35.304,30.839 C36.215,26.383 41.193,22.641 46.181,22.641 L63.688,22.641 C68.303,22.641 72.355,26.077 73.323,30.810 ZM63.688,25.142 L46.181,25.142 C42.373,25.142 38.443,28.024 37.771,31.309 L35.173,45.736 C35.118,46.116 35.227,46.480 35.514,46.811 C35.998,47.368 36.930,47.743 37.833,47.743 L49.953,47.743 L53.508,47.451 C50.707,45.688 45.725,43.007 41.813,43.386 C41.413,43.427 41.018,43.272 40.751,42.973 C40.485,42.674 40.377,42.266 40.464,41.875 L41.849,35.582 C41.997,34.908 42.668,34.484 43.345,34.629 C44.022,34.777 44.451,35.443 44.303,36.117 L43.947,37.734 C44.510,37.502 45.153,37.435 45.835,37.686 L50.773,38.607 C52.119,38.455 59.533,37.720 64.719,39.342 L64.350,35.632 C64.282,34.946 64.786,34.333 65.476,34.266 C66.169,34.194 66.782,34.700 66.849,35.387 L67.423,41.162 C67.469,41.622 67.255,42.069 66.869,42.325 C66.483,42.582 65.985,42.604 65.578,42.385 C60.933,39.896 50.987,41.099 50.886,41.111 C50.757,41.128 50.626,41.122 50.499,41.099 L45.253,40.120 C45.160,40.103 45.069,40.075 44.983,40.038 C44.898,39.999 44.632,40.189 44.467,40.417 L44.075,40.957 C49.900,41.675 56.160,46.161 57.083,46.844 C57.999,47.266 59.964,47.743 60.821,47.743 L70.153,47.743 C71.053,47.743 72.031,47.320 72.531,46.712 C72.914,46.248 72.840,45.880 72.816,45.758 L70.847,31.226 C70.131,27.736 67.114,25.142 63.688,25.142 ZM54.024,20.000 C48.766,20.000 45.234,15.982 45.234,10.000 C45.234,4.019 48.766,-0.000 54.024,-0.000 C59.283,-0.000 62.815,4.019 62.815,10.000 C62.815,15.982 59.283,20.000 54.024,20.000 ZM54.024,2.500 C49.390,2.500 47.745,6.540 47.745,10.000 C47.745,13.460 49.390,17.500 54.024,17.500 C58.659,17.500 60.304,13.460 60.304,10.000 C60.304,6.540 58.659,2.500 54.024,2.500 ZM33.936,20.000 C29.429,20.000 26.401,16.484 26.401,11.250 C26.401,6.016 29.429,2.500 33.936,2.500 C38.443,2.500 41.471,6.016 41.471,11.250 C41.471,16.484 38.443,20.000 33.936,20.000 ZM33.936,5.000 C30.232,5.000 28.912,8.229 28.912,11.250 C28.912,14.271 30.232,17.500 33.936,17.500 C37.640,17.500 38.959,14.271 38.959,11.250 C38.959,8.229 37.640,5.000 33.936,5.000 ZM35.163,22.500 L35.163,25.000 L31.232,25.000 C25.090,25.000 20.093,29.877 20.093,35.872 L20.093,58.750 L21.349,58.750 L21.349,61.250 L18.837,61.250 C18.144,61.250 17.581,60.690 17.581,60.000 L17.581,35.872 C17.581,28.499 23.705,22.500 31.232,22.500 L35.163,22.500 ZM15.070,23.750 C11.314,23.750 8.791,20.736 8.791,16.250 C8.791,11.764 11.314,8.750 15.070,8.750 C18.826,8.750 21.349,11.764 21.349,16.250 C21.349,20.736 18.826,23.750 15.070,23.750 ZM15.070,11.250 C12.292,11.250 11.302,13.833 11.302,16.250 C11.302,18.667 12.292,21.250 15.070,21.250 C17.848,21.250 18.837,18.667 18.837,16.250 C18.837,13.833 17.848,11.250 15.070,11.250 ZM16.326,26.250 L16.326,28.750 L12.558,28.750 C6.549,28.750 2.512,32.266 2.512,37.500 L2.512,60.000 L3.767,60.000 L3.767,62.500 L1.256,62.500 C0.562,62.500 0.000,61.941 0.000,61.250 L0.000,37.500 C0.000,30.876 5.164,26.250 12.558,26.250 L16.326,26.250 ZM8.791,45.000 L8.791,85.000 L6.279,85.000 L6.279,43.750 L7.535,43.750 C8.228,43.750 8.791,44.309 8.791,45.000 ZM17.581,85.000 L15.070,85.000 L15.070,65.000 L17.581,65.000 L17.581,85.000 ZM26.372,40.000 L26.372,85.000 L23.860,85.000 L23.860,41.250 L22.605,41.250 L22.605,38.750 L25.116,38.750 C25.810,38.750 26.372,39.310 26.372,40.000 ZM35.192,85.000 L32.680,85.000 L32.680,61.250 L35.192,61.250 L35.192,85.000 ZM55.280,85.000 L52.769,85.000 L52.769,62.500 L55.280,62.500 L55.280,85.000 ZM75.320,85.000 L72.808,85.000 L72.808,61.250 L75.320,61.250 L75.320,85.000 ZM82.884,38.750 L85.317,38.750 L85.317,41.250 L84.140,41.250 L84.140,85.000 L81.628,85.000 L81.628,40.000 C81.628,39.310 82.190,38.750 82.884,38.750 ZM92.930,85.000 L90.419,85.000 L90.419,65.000 L92.930,65.000 L92.930,85.000 ZM100.465,43.750 L101.721,43.750 L101.721,85.000 L99.209,85.000 L99.209,45.000 C99.209,44.309 99.772,43.750 100.465,43.750 Z"/>
</svg>
