<svg
 xmlns="http://www.w3.org/2000/svg"
 xmlns:xlink="http://www.w3.org/1999/xlink"
 width="99px" height="93px">
<path fill-rule="evenodd"  fill="rgb(255, 255, 255)"
 d="M97.747,77.919 L95.241,77.919 L95.241,75.405 L96.494,75.405 L96.494,50.270 C96.494,42.615 90.212,41.473 86.468,41.473 L82.709,41.473 L82.709,38.959 L86.468,38.959 C94.315,38.959 99.000,43.188 99.000,50.270 L99.000,76.662 C99.000,77.356 98.440,77.919 97.747,77.919 ZM83.962,36.446 C80.089,36.446 77.487,33.416 77.487,28.905 C77.487,24.395 80.089,21.365 83.962,21.365 C87.835,21.365 90.437,24.395 90.437,28.905 C90.437,33.416 87.835,36.446 83.962,36.446 ZM83.962,23.878 C80.280,23.878 79.993,27.726 79.993,28.905 C79.993,30.085 80.280,33.932 83.962,33.932 C87.644,33.932 87.931,30.085 87.931,28.905 C87.931,27.726 87.644,23.878 83.962,23.878 ZM67.671,35.189 C63.173,35.189 60.152,31.654 60.152,26.392 C60.152,21.130 63.173,17.595 67.671,17.595 C72.168,17.595 75.190,21.130 75.190,26.392 C75.190,31.654 72.168,35.189 67.671,35.189 ZM67.671,20.108 C63.975,20.108 62.658,23.354 62.658,26.392 C62.658,29.430 63.975,32.676 67.671,32.676 C71.367,32.676 72.684,29.430 72.684,26.392 C72.684,23.354 71.367,20.108 67.671,20.108 ZM59.114,12.199 C58.869,12.445 58.549,12.568 58.228,12.568 C57.908,12.568 57.587,12.445 57.342,12.199 C56.853,11.709 56.853,10.913 57.342,10.422 L61.772,5.979 C62.262,5.488 63.055,5.488 63.544,5.979 C64.034,6.469 64.034,7.265 63.544,7.756 L59.114,12.199 ZM67.671,36.446 L70.177,36.446 C78.036,36.446 83.962,41.848 83.962,49.013 L83.962,74.149 C83.962,74.842 83.402,75.405 82.709,75.405 L80.203,75.405 L80.203,72.892 L81.456,72.892 L81.456,49.013 C81.456,43.282 76.607,38.959 70.177,38.959 L67.671,38.959 C59.583,38.959 55.645,35.167 53.138,24.966 L53.119,24.892 C52.755,26.554 52.319,28.526 51.831,30.700 C51.604,31.711 51.305,32.707 50.955,33.682 C53.826,40.879 59.719,46.803 59.781,46.864 C60.019,47.100 60.152,47.422 60.152,47.757 L60.152,93.000 L57.646,93.000 L57.646,48.268 C56.400,46.964 52.373,42.507 49.614,36.849 C46.859,42.506 42.825,46.961 41.576,48.269 L41.576,93.000 L39.070,93.000 L39.070,47.757 C39.070,47.422 39.203,47.100 39.441,46.864 C39.509,46.796 45.390,40.878 48.265,33.686 C48.262,33.680 48.260,33.674 48.258,33.668 L48.274,33.662 C48.731,32.516 49.119,31.341 49.386,30.148 C50.795,23.872 51.786,19.217 51.786,19.217 C51.900,18.611 51.774,17.991 51.426,17.502 C51.130,17.084 50.700,16.814 50.218,16.743 C49.439,16.580 48.914,16.625 48.538,16.875 C47.946,17.264 47.650,18.214 47.504,18.941 L46.086,24.955 C43.577,35.167 39.639,38.959 31.551,38.959 L29.044,38.959 C22.615,38.959 17.766,43.282 17.766,49.013 L17.766,72.892 L19.019,72.892 L19.019,75.405 L16.513,75.405 C15.820,75.405 15.259,74.842 15.259,74.149 L15.259,49.013 C15.259,41.848 21.185,36.446 29.044,36.446 L31.551,36.446 C37.606,36.446 41.140,34.577 43.650,24.365 L45.056,18.405 C45.394,16.707 46.105,15.471 47.160,14.775 C48.111,14.148 49.289,13.978 50.661,14.271 C51.747,14.428 52.771,15.063 53.468,16.043 C54.137,16.985 54.409,18.175 54.274,19.356 L55.568,24.349 C58.081,34.577 61.616,36.446 67.671,36.446 ZM50.127,8.798 C49.434,8.798 48.873,8.234 48.873,7.541 L48.873,1.257 C48.873,0.563 49.434,-0.000 50.127,-0.000 C50.819,-0.000 51.380,0.563 51.380,1.257 L51.380,7.541 C51.380,8.234 50.819,8.798 50.127,8.798 ZM41.354,12.568 C41.034,12.568 40.713,12.445 40.468,12.199 L36.038,7.756 C35.549,7.265 35.549,6.469 36.038,5.979 C36.528,5.488 37.321,5.488 37.810,5.979 L42.240,10.422 C42.730,10.913 42.730,11.709 42.240,12.199 C41.996,12.445 41.675,12.568 41.354,12.568 ZM39.070,26.392 C39.070,31.654 36.048,35.189 31.551,35.189 C27.053,35.189 24.032,31.654 24.032,26.392 C24.032,21.130 27.053,17.595 31.551,17.595 C36.048,17.595 39.070,21.130 39.070,26.392 ZM31.551,20.108 C27.855,20.108 26.538,23.354 26.538,26.392 C26.538,29.430 27.855,32.676 31.551,32.676 C35.246,32.676 36.563,29.430 36.563,26.392 C36.563,23.354 35.246,20.108 31.551,20.108 ZM15.038,36.446 C11.165,36.446 8.563,33.416 8.563,28.905 C8.563,24.395 11.165,21.365 15.038,21.365 C18.911,21.365 21.513,24.395 21.513,28.905 C21.513,33.416 18.911,36.446 15.038,36.446 ZM15.038,23.878 C11.356,23.878 11.069,27.726 11.069,28.905 C11.069,30.085 11.356,33.932 15.038,33.932 C18.720,33.932 19.007,30.085 19.007,28.905 C19.007,27.726 18.720,23.878 15.038,23.878 ZM16.291,38.959 L16.291,41.473 L12.532,41.473 C8.788,41.473 2.506,42.615 2.506,50.270 L2.506,75.405 L3.759,75.405 L3.759,77.919 L1.253,77.919 C0.561,77.919 -0.000,77.356 -0.000,76.662 L-0.000,50.270 C-0.000,43.188 4.685,38.959 12.532,38.959 L16.291,38.959 ZM8.772,56.554 L8.772,93.000 L6.266,93.000 L6.266,57.811 L5.013,57.811 L5.013,55.298 L7.519,55.298 C8.212,55.298 8.772,55.860 8.772,56.554 ZM17.544,93.000 L15.038,93.000 L15.038,79.176 L17.544,79.176 L17.544,93.000 ZM24.032,54.040 L24.032,93.000 L21.525,93.000 L21.525,55.298 L20.272,55.298 L20.272,52.784 L22.778,52.784 C23.471,52.784 24.032,53.347 24.032,54.040 ZM32.804,93.000 L30.297,93.000 L30.297,71.635 L32.804,71.635 L32.804,93.000 ZM68.924,93.000 L66.418,93.000 L66.418,71.635 L68.924,71.635 L68.924,93.000 ZM76.443,52.784 L78.949,52.784 L78.949,55.298 L77.696,55.298 L77.696,93.000 L75.190,93.000 L75.190,54.040 C75.190,53.347 75.750,52.784 76.443,52.784 ZM83.962,93.000 L81.456,93.000 L81.456,79.176 L83.962,79.176 L83.962,93.000 ZM91.481,55.298 L93.987,55.298 L93.987,57.811 L92.734,57.811 L92.734,93.000 L90.228,93.000 L90.228,56.554 C90.228,55.860 90.788,55.298 91.481,55.298 Z"/>
</svg>
