<svg
 xmlns="http://www.w3.org/2000/svg"
 xmlns:xlink="http://www.w3.org/1999/xlink"
 width="129px" height="94px">
<path fill-rule="evenodd"  fill="rgb(255, 255, 255)"
 d="M118.981,88.913 L118.981,94.000 L116.476,94.000 L116.476,88.987 L105.204,88.987 L101.447,88.987 L101.447,94.000 L98.942,94.000 L98.942,88.987 L93.932,88.987 L83.913,88.987 C83.220,88.987 82.660,88.426 82.660,87.734 C82.660,82.896 86.594,78.960 91.427,78.960 L98.854,78.960 C98.907,78.557 98.942,78.143 98.942,77.707 L98.942,72.697 C90.253,75.890 78.062,77.707 65.126,77.707 C57.327,77.707 49.626,77.036 42.858,75.769 C41.358,75.488 39.925,75.177 38.540,74.845 C36.822,74.580 35.248,74.215 33.934,73.756 C33.413,73.574 32.897,73.331 32.391,73.067 C31.586,72.790 30.812,72.501 30.058,72.205 L30.058,77.707 C30.058,78.143 30.093,78.557 30.146,78.960 L37.573,78.960 C42.406,78.960 46.340,82.896 46.340,87.734 C46.340,88.426 45.780,88.987 45.087,88.987 L35.068,88.987 L30.058,88.987 L30.058,94.000 L27.553,94.000 L27.553,88.987 L23.796,88.987 L12.524,88.987 L12.524,94.000 L10.019,94.000 L10.019,88.913 C4.392,88.287 -0.000,83.502 -0.000,77.707 L-0.000,65.173 L-0.000,64.764 L-0.000,62.667 C-0.000,53.378 6.462,46.373 15.029,46.373 L21.291,46.373 C21.340,46.373 21.390,46.376 21.439,46.382 C25.110,46.819 27.714,48.556 29.682,50.767 C33.723,49.113 38.799,47.740 44.448,46.777 L45.090,37.513 C46.455,27.424 51.367,22.560 60.117,22.560 L70.136,22.560 C79.125,22.560 85.165,28.604 85.165,37.600 L85.165,46.673 C90.641,47.572 95.623,48.850 99.653,50.400 C101.581,48.366 104.095,46.795 107.561,46.382 C107.610,46.376 107.660,46.373 107.709,46.373 L113.971,46.373 C122.538,46.373 129.000,53.378 129.000,62.667 L129.000,64.764 L129.000,65.173 L129.000,77.707 C129.000,83.502 124.608,88.287 118.981,88.913 ZM91.427,81.467 C88.403,81.467 85.873,83.623 85.291,86.480 L93.611,86.480 C94.388,86.033 96.878,84.415 98.162,81.467 L91.427,81.467 ZM35.390,86.480 L43.709,86.480 C43.127,83.623 40.597,81.467 37.573,81.467 L30.838,81.467 C32.120,84.412 34.607,86.030 35.390,86.480 ZM2.505,65.173 L2.505,77.707 C2.505,82.544 6.438,86.480 11.272,86.480 L23.796,86.480 L31.323,86.480 C29.492,84.672 27.553,81.793 27.553,77.707 L27.553,68.942 C27.553,64.099 23.616,60.160 18.778,60.160 L7.106,60.160 C4.569,60.160 2.505,62.225 2.505,64.764 L2.505,65.173 ZM21.215,48.880 L15.029,48.880 C8.928,48.880 4.246,52.987 2.906,59.042 C4.084,58.173 5.534,57.654 7.106,57.654 L18.778,57.654 C24.804,57.654 29.727,62.410 30.029,68.367 C30.736,69.012 32.016,70.022 33.395,70.768 C35.124,71.353 36.999,71.892 38.993,72.376 C40.829,72.654 42.854,72.813 44.894,72.819 C44.895,72.819 44.898,72.819 44.900,72.819 C45.496,72.819 46.052,72.587 46.467,72.167 C46.873,71.755 47.092,71.210 47.082,70.633 C47.065,69.504 46.196,68.598 45.059,68.524 C44.725,68.502 44.378,68.488 44.021,68.474 C40.961,68.353 36.771,68.186 33.830,63.141 C33.233,62.118 32.679,60.929 32.093,59.671 C29.909,54.977 27.433,49.660 21.215,48.880 ZM82.660,37.600 C82.660,29.986 77.745,25.066 70.136,25.066 L60.117,25.066 C52.637,25.066 48.771,28.984 47.581,37.768 L46.729,50.063 C46.731,51.259 47.412,52.640 48.910,52.640 L63.874,52.640 L63.874,48.880 C63.874,48.189 63.312,47.627 62.621,47.627 L53.854,47.627 L53.854,45.120 L62.621,45.120 C63.587,45.120 64.460,45.497 65.126,46.098 C65.792,45.497 66.665,45.120 67.631,45.120 L76.398,45.120 L76.398,47.627 L67.631,47.627 C66.940,47.627 66.379,48.189 66.379,48.880 L66.379,52.640 L80.091,52.640 C81.483,52.640 82.660,51.403 82.660,49.938 L82.660,37.600 ZM85.165,49.212 L85.165,49.938 C85.165,52.761 82.841,55.147 80.091,55.147 L48.910,55.147 C46.239,55.147 44.226,52.924 44.226,49.976 L44.269,49.355 C39.339,50.227 34.894,51.415 31.276,52.827 C32.560,54.741 33.522,56.803 34.365,58.613 C34.925,59.817 35.454,60.954 35.994,61.878 C38.242,65.736 41.230,65.855 44.120,65.970 C44.499,65.985 44.867,65.999 45.221,66.022 C47.673,66.181 49.550,68.146 49.587,70.594 C49.607,71.848 49.132,73.032 48.250,73.927 C48.199,73.980 48.137,74.017 48.083,74.067 C53.459,74.807 59.256,75.200 65.126,75.200 C70.676,75.200 76.072,74.857 81.097,74.216 C80.981,74.119 80.857,74.036 80.750,73.927 C79.868,73.032 79.393,71.848 79.413,70.593 C79.450,68.146 81.327,66.181 83.779,66.022 C84.133,65.999 84.501,65.985 84.880,65.970 C87.770,65.855 90.758,65.736 93.007,61.878 C93.546,60.954 94.075,59.817 94.635,58.613 C95.531,56.689 96.567,54.482 97.976,52.469 C94.340,51.142 89.980,50.023 85.165,49.212 ZM113.971,48.880 L107.785,48.880 C101.566,49.660 99.091,54.977 96.907,59.671 C96.321,60.929 95.767,62.118 95.171,63.141 C92.229,68.186 88.039,68.353 84.979,68.474 C84.622,68.488 84.275,68.502 83.941,68.524 C82.804,68.598 81.935,69.504 81.918,70.632 C81.908,71.210 82.127,71.755 82.533,72.167 C82.948,72.587 83.504,72.819 84.101,72.819 C84.102,72.819 84.105,72.819 84.106,72.819 C87.922,72.809 91.710,72.274 94.239,71.391 C96.026,70.766 98.015,69.243 98.970,68.378 C99.267,62.416 104.192,57.654 110.222,57.654 L121.894,57.654 C123.466,57.654 124.916,58.173 126.094,59.041 C124.754,52.987 120.072,48.880 113.971,48.880 ZM126.495,65.173 L126.495,64.764 C126.495,62.225 124.431,60.160 121.894,60.160 L110.222,60.160 C105.384,60.160 101.447,64.099 101.447,68.942 L101.447,77.707 C101.447,81.793 99.508,84.672 97.677,86.480 L105.204,86.480 L117.728,86.480 C122.562,86.480 126.495,82.544 126.495,77.707 L126.495,65.173 ZM110.214,43.866 C104.970,43.866 101.447,39.838 101.447,33.840 C101.447,27.842 104.970,23.814 110.214,23.814 C115.457,23.814 118.981,27.842 118.981,33.840 C118.981,39.838 115.457,43.866 110.214,43.866 ZM110.214,26.320 C105.592,26.320 103.951,30.371 103.951,33.840 C103.951,37.309 105.592,41.360 110.214,41.360 C114.836,41.360 116.476,37.309 116.476,33.840 C116.476,30.371 114.836,26.320 110.214,26.320 ZM65.126,20.053 C59.883,20.053 56.359,16.024 56.359,10.026 C56.359,4.029 59.883,-0.000 65.126,-0.000 C70.370,-0.000 73.893,4.029 73.893,10.026 C73.893,16.024 70.370,20.053 65.126,20.053 ZM65.126,2.507 C60.504,2.507 58.864,6.557 58.864,10.026 C58.864,13.496 60.504,17.547 65.126,17.547 C69.748,17.547 71.388,13.496 71.388,10.026 C71.388,6.557 69.748,2.507 65.126,2.507 ZM18.786,43.866 C13.543,43.866 10.019,39.838 10.019,33.840 C10.019,27.842 13.543,23.814 18.786,23.814 C24.030,23.814 27.553,27.842 27.553,33.840 C27.553,39.838 24.030,43.866 18.786,43.866 ZM18.786,26.320 C14.164,26.320 12.524,30.371 12.524,33.840 C12.524,37.309 14.164,41.360 18.786,41.360 C23.408,41.360 25.049,37.309 25.049,33.840 C25.049,30.371 23.408,26.320 18.786,26.320 Z"/>
</svg>
