<svg
 xmlns="http://www.w3.org/2000/svg"
 xmlns:xlink="http://www.w3.org/1999/xlink"
 width="33px" height="34px">
<path fill-rule="evenodd"  fill="rgb(25, 164, 183)"
 d="M32.670,-0.014 C30.804,0.110 29.264,0.350 28.046,0.707 C26.828,1.063 25.833,1.550 25.059,2.170 C24.172,2.883 23.181,3.925 22.082,5.295 C20.983,6.666 19.382,8.894 17.280,11.976 C15.777,14.176 13.983,16.894 11.897,20.131 C9.716,23.524 8.466,25.219 8.151,25.219 C7.786,25.219 7.336,24.476 6.799,22.989 C6.561,22.323 6.364,21.796 6.206,21.409 C5.937,20.774 5.700,20.360 5.495,20.166 C5.288,19.972 5.020,19.875 4.688,19.875 C3.660,19.875 2.621,20.244 1.570,20.980 C0.518,21.715 -0.007,22.524 -0.007,23.407 C-0.007,23.841 0.237,24.917 0.728,26.637 C0.759,26.776 0.791,26.893 0.822,26.985 C1.249,28.535 1.620,29.709 1.937,30.506 C2.253,31.304 2.593,31.950 2.957,32.446 C3.399,33.019 3.882,33.422 4.404,33.654 C4.925,33.887 5.589,34.003 6.395,34.003 C8.292,34.003 9.754,32.996 10.782,30.983 C11.114,30.316 11.391,29.797 11.613,29.425 C14.616,24.391 17.908,19.481 21.489,14.694 C25.070,9.908 28.907,5.276 33.002,0.799 L32.670,-0.014 Z"/>
</svg>
