<?xml version="1.0" encoding="utf-8"?>
<!-- Generator: Adobe Illustrator 23.1.0, SVG Export Plug-In . SVG Version: 6.00 Build 0)  -->
<svg version="1.1" id="Laag_1" xmlns="http://www.w3.org/2000/svg" xmlns:xlink="http://www.w3.org/1999/xlink" x="0px" y="0px"
	 viewBox="0 0 36.02 41.01" style="enable-background:new 0 0 36.02 41.01;" xml:space="preserve">
<style type="text/css">
	.st0{fill:#FF414D;}
</style>
<g>
	<path class="st0" d="M14.01,0.67c-0.89,0.89-0.89,2.34,0,3.23c0.89,0.89,2.32,0.89,3.21,0c0.89-0.89,0.89-2.34,0-3.23
		C16.33-0.22,14.9-0.22,14.01,0.67z"/>
	<path class="st0" d="M20.05,6.74c-0.89,0.89-0.89,2.34,0,3.23c0.89,0.89,2.32,0.89,3.21,0c0.89-0.89,0.89-2.34,0-3.23
		C22.38,5.85,20.94,5.85,20.05,6.74z"/>
	<path class="st0" d="M26.1,12.82c-0.89,0.89-0.89,2.34,0,3.23c0.89,0.89,2.32,0.89,3.21,0c0.89-0.89,0.89-2.34,0-3.23
		C28.42,11.92,26.99,11.92,26.1,12.82z"/>
	<path class="st0" d="M32.15,18.89c-0.89,0.89-0.89,2.34,0,3.23c0.89,0.89,2.32,0.89,3.21,0c0.89-0.89,0.89-2.34,0-3.23
		C34.47,18,33.03,18,32.15,18.89z"/>
	<path class="st0" d="M14.01,40.34c-0.89-0.89-0.89-2.34,0-3.23c0.89-0.89,2.32-0.89,3.21,0c0.89,0.89,0.89,2.34,0,3.23
		C16.33,41.23,14.9,41.23,14.01,40.34z"/>
	<path class="st0" d="M20.05,34.26c-0.89-0.89-0.89-2.34,0-3.23c0.89-0.89,2.32-0.89,3.21,0c0.89,0.89,0.89,2.34,0,3.23
		C22.38,35.15,20.94,35.15,20.05,34.26z"/>
	<path class="st0" d="M26.1,28.19c-0.89-0.89-0.89-2.33,0-3.23c0.89-0.89,2.32-0.89,3.21,0c0.89,0.89,0.89,2.34,0,3.23
		C28.42,29.08,26.99,29.08,26.1,28.19z"/>
	<path class="st0" d="M32.15,22.12c-0.89-0.89-0.89-2.34,0-3.23c0.89-0.89,2.32-0.89,3.21,0c0.89,0.89,0.89,2.34,0,3.23
		C34.47,23.01,33.03,23.01,32.15,22.12z"/>
	<path class="st0" d="M0.67,0.67C-0.22,1.56-0.22,3,0.67,3.9c0.89,0.89,2.32,0.89,3.21,0c0.89-0.89,0.89-2.34,0-3.23
		C2.99-0.22,1.55-0.22,0.67,0.67z"/>
	<path class="st0" d="M6.71,6.74c-0.89,0.89-0.89,2.34,0,3.23c0.89,0.89,2.32,0.89,3.21,0c0.89-0.89,0.89-2.34,0-3.23
		C9.04,5.85,7.6,5.85,6.71,6.74z"/>
	<path class="st0" d="M12.76,12.82c-0.89,0.89-0.89,2.34,0,3.23c0.89,0.89,2.32,0.89,3.21,0c0.89-0.89,0.89-2.34,0-3.23
		C15.08,11.92,13.64,11.92,12.76,12.82z"/>
	<path class="st0" d="M18.8,18.89c-0.89,0.89-0.89,2.34,0,3.23c0.89,0.89,2.33,0.89,3.21,0c0.89-0.89,0.89-2.34,0-3.23
		C21.13,18,19.69,18,18.8,18.89z"/>
	<path class="st0" d="M0.67,40.34c-0.89-0.89-0.89-2.34,0-3.23c0.89-0.89,2.32-0.89,3.21,0c0.89,0.89,0.89,2.34,0,3.23
		C2.99,41.23,1.55,41.23,0.67,40.34z"/>
	<path class="st0" d="M6.71,34.26c-0.89-0.89-0.89-2.34,0-3.23c0.89-0.89,2.32-0.89,3.21,0c0.89,0.89,0.89,2.34,0,3.23
		C9.04,35.15,7.6,35.15,6.71,34.26z"/>
	<path class="st0" d="M12.76,28.19c-0.89-0.89-0.89-2.33,0-3.23c0.89-0.89,2.32-0.89,3.21,0c0.89,0.89,0.89,2.34,0,3.23
		C15.08,29.08,13.64,29.08,12.76,28.19z"/>
	<path class="st0" d="M18.8,22.12c-0.89-0.89-0.89-2.34,0-3.23c0.89-0.89,2.33-0.89,3.21,0c0.89,0.89,0.89,2.34,0,3.23
		C21.13,23.01,19.69,23.01,18.8,22.12z"/>
</g>
</svg>
