<svg
 xmlns="http://www.w3.org/2000/svg"
 xmlns:xlink="http://www.w3.org/1999/xlink"
 width="112px" height="51px">
<path fill-rule="evenodd"  fill="rgb(0, 45, 66)"
 d="M111.312,30.654 C109.622,34.794 79.463,53.713 64.187,46.428 C60.554,44.695 57.681,41.721 55.433,38.143 C56.687,35.980 57.768,33.799 58.670,31.768 C60.865,26.823 62.679,21.235 63.832,16.295 C64.891,22.444 66.825,28.851 72.185,31.347 C83.188,36.467 101.946,18.749 106.083,20.463 C110.220,22.175 113.001,26.512 111.312,30.654 ZM75.382,28.739 C62.588,25.339 67.197,-2.089 81.550,1.869 C98.397,6.515 88.177,32.141 75.382,28.739 ZM39.854,49.368 C23.894,55.003 1.879,35.734 0.437,31.352 C-1.003,26.969 1.812,22.534 6.177,21.025 C10.543,19.517 23.425,37.203 34.831,33.056 C46.237,28.908 46.954,3.133 51.093,1.424 C55.230,-0.286 60.268,0.818 62.007,4.939 C63.744,9.059 55.815,43.733 39.854,49.368 ZM20.578,5.601 C35.781,-3.009 46.700,22.327 35.245,28.955 C23.790,35.586 7.628,12.935 20.578,5.601 Z"/>
</svg>
