<svg
 xmlns="http://www.w3.org/2000/svg"
 xmlns:xlink="http://www.w3.org/1999/xlink"
 width="171px" height="77px">
<path fill-rule="evenodd"  fill="rgb(25, 164, 183)"
 d="M169.238,46.430 C166.666,52.838 120.787,82.119 97.549,70.843 C92.022,68.161 87.651,63.558 84.232,58.022 C86.140,54.672 87.784,51.298 89.156,48.153 C92.495,40.500 95.254,31.852 97.009,24.205 C98.620,33.722 101.561,43.639 109.716,47.502 C126.454,55.427 154.989,28.003 161.284,30.656 C167.577,33.305 171.807,40.019 169.238,46.430 ZM114.579,43.466 C95.116,38.203 102.128,-4.248 123.961,1.878 C149.590,9.069 134.043,48.731 114.579,43.466 ZM60.532,75.393 C36.253,84.114 2.763,54.291 0.570,47.509 C-1.622,40.727 2.660,33.861 9.301,31.526 C15.942,29.192 35.539,56.565 52.891,50.147 C70.242,43.727 71.333,3.834 77.630,1.189 C83.923,-1.457 91.586,0.250 94.232,6.629 C96.874,13.006 84.812,66.672 60.532,75.393 ZM31.208,7.653 C54.336,-5.673 70.946,33.541 53.521,43.800 C36.095,54.062 11.508,19.006 31.208,7.653 Z"/>
</svg>
