<?xml version="1.0" encoding="UTF-8"?>
<svg width="171px" height="107px" viewBox="0 0 171 107" version="1.1" xmlns="http://www.w3.org/2000/svg" xmlns:xlink="http://www.w3.org/1999/xlink">
    <title>logo_footer</title>
    <g id="Page-1" stroke="none" stroke-width="1" fill="none" fill-rule="evenodd">
        <g id="logo_footer" fill="#414400" fill-rule="nonzero">
            <path d="M55.3,67.49 C55.3,64.72 53.04,62.48 50.26,62.48 L38.04,62.48 L38.04,50.31 C38.04,47.54 35.78,45.29 33,45.29 L25.75,45.29 C22.96,45.29 20.71,47.54 20.71,50.31 L20.71,62.47 L8.49,62.47 C5.7,62.47 3.45,64.72 3.45,67.48 L3.45,74.69 C3.45,77.46 5.7,79.71 8.49,79.71 L20.71,79.71 L20.71,91.87 C20.71,94.64 22.97,96.88 25.75,96.88 L33,96.88 C35.78,96.88 38.04,94.64 38.04,91.87 L38.04,79.71 L50.26,79.71 C53.04,79.71 55.3,77.46 55.3,74.69 L55.3,67.49 Z M127.78,35.96 C93,35.96 60.54,52.09 54.7,96.13 C70.21,74.74 88.65,62.37 108.79,54.96 C87.91,68 72.14,83.44 64.84,104.56 C70.69,105.69 75.98,106.21 80.82,106.21 C129.15,106.21 131.65,54.51 170.5,43.43 C157.01,38.74 142.2,35.96 127.78,35.96 Z M41.73,83.38 L41.73,83.91 L51.17,93.3 C51.75,89.63 52.51,86.12 53.47,82.75 C52.47,83.14 51.4,83.37 50.26,83.37 L41.73,83.37 L41.73,83.38 Z M16.49,58.8 L17.02,58.8 L17.02,50.31 C17.02,45.52 20.94,41.62 25.75,41.62 L33,41.62 C37.82,41.62 41.73,45.52 41.73,50.31 L41.73,58.8 L50.26,58.8 C55.07,58.8 58.99,62.7 58.99,67.49 L58.99,68.63 C68.73,49.83 85.97,37.75 109.14,33.64 C110.23,24.8 107.39,15.57 100.57,8.78 C88.8,-2.92 69.73,-2.92 57.97,8.78 L54.7,12.04 L51.42,8.78 C39.66,-2.92 20.59,-2.92 8.82,8.78 C-2.94,20.49 -2.94,39.47 8.82,51.17 L16.49,58.8 Z" id="Shape"></path>
        </g>
    </g>
</svg>