<?xml version="1.0" encoding="utf-8"?>
<!-- Generator: Adobe Illustrator 24.1.3, SVG Export Plug-In . SVG Version: 6.00 Build 0)  -->
<svg version="1.1" id="Laag_1" xmlns="http://www.w3.org/2000/svg" xmlns:xlink="http://www.w3.org/1999/xlink" x="0px" y="0px"
	 viewBox="0 0 170.5 106.22" style="enable-background:new 0 0 170.5 106.22;" xml:space="preserve">
<g>
	<g>
		<path d="M55.3,67.49c0-2.77-2.26-5.01-5.04-5.01H38.04V50.31c0-2.77-2.26-5.02-5.04-5.02h-7.25c-2.79,0-5.04,2.25-5.04,5.02v12.16
			H8.49c-2.79,0-5.04,2.25-5.04,5.01v7.21c0,2.77,2.25,5.02,5.04,5.02h12.22v12.16c0,2.77,2.26,5.01,5.04,5.01H33
			c2.78,0,5.04-2.24,5.04-5.01V79.71h12.22c2.78,0,5.04-2.25,5.04-5.02V67.49z M127.78,35.96C93,35.96,60.54,52.09,54.7,96.13
			c15.51-21.39,33.95-33.76,54.09-41.17c-20.88,13.04-36.65,28.48-43.95,49.6c5.85,1.13,11.14,1.65,15.98,1.65
			c48.33,0,50.83-51.7,89.68-62.78C157.01,38.74,142.2,35.96,127.78,35.96z M41.73,83.38v0.53l9.44,9.39
			c0.58-3.67,1.34-7.18,2.3-10.55c-1,0.39-2.07,0.62-3.21,0.62H41.73z M16.49,58.8h0.53v-8.49c0-4.79,3.92-8.69,8.73-8.69H33
			c4.82,0,8.73,3.9,8.73,8.69v8.49h8.53c4.81,0,8.73,3.9,8.73,8.69v1.14c9.74-18.8,26.98-30.88,50.15-34.99
			c1.09-8.84-1.75-18.07-8.57-24.86c-11.77-11.7-30.84-11.7-42.6,0l-3.27,3.26l-3.28-3.26c-11.76-11.7-30.83-11.7-42.6,0
			c-11.76,11.71-11.76,30.69,0,42.39L16.49,58.8z"/>
	</g>
</g>
</svg>
